<svg width="24.000000" height="24.000000" viewBox="0 0 24 24" fill="none" xmlns="http://www.w3.org/2000/svg" xmlns:xlink="http://www.w3.org/1999/xlink">
	<desc>
			Created with Pixso.
	</desc>
	<defs>
		<clipPath id="clip15272_31364">
			<rect id="Profile" width="24.000000" height="24.000000" fill="white" fill-opacity="0"/>
		</clipPath>
	</defs>
	<g clip-path="url(#clip15272_31364)">
		<path id="Vector" d="M12 1C5.92383 1 1 5.9248 1 12C1 18.0752 5.92383 23 12 23C18.0762 23 23 18.0752 23 12C23 5.9248 18.0762 1 12 1ZM12 4.02539C13.9746 4.02539 15.5742 5.62598 15.5742 7.59961C15.5742 9.57422 13.9746 11.1748 12 11.1748C10.0254 11.1748 8.42578 9.57422 8.42578 7.59961C8.42578 5.62598 10.0254 4.02539 12 4.02539ZM12 20.7998C9.31836 20.7998 6.91602 19.5996 5.30273 17.707C4.88477 17.2148 4.97852 16.4766 5.49414 16.0889C7.16211 14.834 10.2031 14.2002 12 14.2002C13.7969 14.2002 16.8379 14.834 18.5078 16.0889C19.0234 16.4766 19.1172 17.2158 18.6973 17.707C17.084 19.5996 14.6816 20.7998 12 20.7998Z" fill="#0069AB" fill-opacity="1.000000" fill-rule="nonzero"/>
	</g>
</svg>
