<svg width="24.000000" height="24.000000" viewBox="0 0 24 24" fill="none" xmlns="http://www.w3.org/2000/svg" xmlns:xlink="http://www.w3.org/1999/xlink">
	<desc>
			Created with Pixso.
	</desc>
	<defs>
		<clipPath id="clip15272_31359">
			<rect id="Cart" width="24.000000" height="24.000000" fill="white" fill-opacity="0"/>
		</clipPath>
	</defs>
	<g clip-path="url(#clip15272_31359)">
		<path id="Union" d="M2 1C1.44727 1 1 1.44727 1 2C1 2.55273 1.44727 3 2 3L2.62109 3C3.03711 3 3.4082 3.25586 3.55664 3.64355L6.85352 12.3008L5.65625 13.6982C4.54297 14.9961 5.46484 17 7.17383 17L20 17C20.5527 17 21 16.5527 21 16C21 15.4473 20.5527 15 20 15L7.17383 15L8.37305 13.6025C8.46094 13.5 8.53516 13.3906 8.59961 13.2754L8.67773 13.2168C8.78711 13.2383 8.90039 13.25 9.01562 13.25L17.6699 13.25C18.3984 13.25 19.0508 12.7988 19.3066 12.1182L22.2285 4.37598C22.3164 4.14551 22.2852 3.88672 22.1445 3.68457C22.0039 3.48242 21.7734 3.36133 21.5273 3.36133L5.58789 3.36133L5.42578 2.93164C4.98242 1.76855 3.86719 1 2.62109 1L2 1ZM9.91602 19.8887C9.91602 21.0547 8.9707 22 7.80469 22C6.63867 22 5.69531 21.0547 5.69531 19.8887C5.69531 18.7227 6.63867 17.7773 7.80469 17.7773C8.9707 17.7773 9.91602 18.7227 9.91602 19.8887ZM18.3613 22C19.5273 22 20.4727 21.0547 20.4727 19.8887C20.4727 18.7227 19.5273 17.7773 18.3613 17.7773C17.1953 17.7773 16.25 18.7227 16.25 19.8887C16.25 21.0547 17.1953 22 18.3613 22Z" fill="#0069AB" fill-opacity="1.000000" fill-rule="evenodd"/>
	</g>
</svg>
