<svg width="20.000000" height="20.000000" viewBox="0 0 20 20" fill="none" xmlns="http://www.w3.org/2000/svg" xmlns:xlink="http://www.w3.org/1999/xlink">
	<desc>
			Created with Pixso.
	</desc>
	<defs/>
	<rect id="Comment" width="20.000000" height="20.000000" fill="#FFFFFF" fill-opacity="0"/>
	<path id="Rectangle" d="M11.2461 3C13.0352 3 13.9297 3 14.6406 3.28125C15.666 3.6875 16.4785 4.5 16.8848 5.52637C17.166 6.23633 17.166 7.13184 17.166 8.9209C17.166 10.7109 17.166 11.6055 16.8848 12.3154C16.4785 13.3418 15.666 14.1543 14.6406 14.5605C13.9297 14.8418 13.0352 14.8418 11.2461 14.8418L7.96289 14.8418C7.81055 14.8418 7.73633 14.8418 7.66211 14.8447C6.70117 14.8799 5.78516 15.2607 5.08008 15.916C5.02734 15.9658 4.97461 16.0195 4.86719 16.127C4.73438 16.2598 4.66992 16.3252 4.62695 16.3594C4.01172 16.8545 3.0918 16.4746 3.00586 15.6895C3 15.6357 3 15.542 3 15.3555L3 10.9199C3 7.22656 3 5.37988 4.12695 4.2168C4.15625 4.18652 4.18555 4.15625 4.2168 4.12793C5.37891 3 7.22656 3 10.9199 3L11.2461 3Z" stroke="#000000" stroke-opacity="1.000000" stroke-width="1.500000" stroke-linejoin="round"/>
	<circle id="Ellipse" cx="6.750000" cy="9.250000" r="0.750000" stroke="#000000" stroke-opacity="1.000000" stroke-width="1.000000"/>
	<circle id="Ellipse" cx="10.085938" cy="9.250000" r="0.750000" stroke="#000000" stroke-opacity="1.000000" stroke-width="1.000000"/>
	<circle id="Ellipse" cx="13.414062" cy="9.250000" r="0.750000" stroke="#000000" stroke-opacity="1.000000" stroke-width="1.000000"/>
</svg>
