<svg width="114" height="31" viewBox="0 0 114 31" fill="none" xmlns="http://www.w3.org/2000/svg">
    <path d="M18.856 14.92c-.03-3.403 2.797-5.058 2.927-5.135-1.602-2.326-4.084-2.643-4.957-2.669-2.085-.218-4.107 1.243-5.17 1.243-1.082 0-2.718-1.222-4.48-1.186-2.27.035-4.391 1.343-5.555 3.374-2.402 4.141-.61 10.227 1.69 13.575 1.152 1.64 2.497 3.47 4.258 3.405 1.722-.07 2.365-1.092 4.444-1.092 2.06 0 2.664 1.092 4.46 1.051 1.848-.028 3.012-1.647 4.123-3.3 1.33-1.879 1.864-3.73 1.885-3.825-.042-.015-3.589-1.364-3.625-5.441zM15.464 4.914c.927-1.154 1.56-2.723 1.385-4.316-1.341.059-3.018.923-3.984 2.052-.854.994-1.617 2.624-1.42 4.157 1.506.112 3.053-.757 4.02-1.893zM43.422 26.29h-2.328l-1.275-3.782h-4.432l-1.215 3.782h-2.266l4.392-12.877h2.712l4.412 12.877zm-3.987-5.37-1.153-3.362c-.122-.343-.352-1.152-.688-2.425h-.041a97.316 97.316 0 0 1-.648 2.425l-1.133 3.363h3.663zm15.26.613c0 1.58-.455 2.827-1.364 3.744-.814.815-1.825 1.223-3.032 1.223-1.302 0-2.24-.439-2.808-1.317v4.872h-2.185v-9.998c0-.992-.028-2.01-.081-3.052h1.922l.122 1.472h.04c.73-1.11 1.835-1.664 3.32-1.664 1.16 0 2.128.433 2.903 1.299.774.868 1.163 2.008 1.163 3.421zm-2.227.075c0-.903-.215-1.648-.648-2.236-.472-.61-1.107-.916-1.902-.916-.539 0-1.029.17-1.467.506a2.33 2.33 0 0 0-.86 1.329 2.551 2.551 0 0 0-.1.628v1.549c0 .674.218 1.244.657 1.71.439.465 1.009.698 1.71.698.823 0 1.463-.3 1.922-.898.459-.599.688-1.388.688-2.37zm13.54-.075c0 1.58-.455 2.827-1.364 3.744-.815.815-1.826 1.223-3.033 1.223-1.303 0-2.24-.439-2.808-1.317v4.872h-2.186v-9.998c0-.992-.027-2.01-.08-3.052h1.921l.122 1.472h.041c.728-1.11 1.834-1.664 3.319-1.664 1.16 0 2.128.433 2.905 1.299.773.868 1.162 2.008 1.162 3.421zm-2.228.075c0-.903-.216-1.648-.649-2.236-.473-.61-1.105-.916-1.9-.916-.54 0-1.03.17-1.47.506a2.33 2.33 0 0 0-.858 1.329 2.615 2.615 0 0 0-.102.628v1.549c0 .674.22 1.244.657 1.71.438.464 1.008.698 1.711.698.824 0 1.465-.3 1.922-.898.46-.599.689-1.388.689-2.37zm14.875 1.07c0 1.096-.406 1.987-1.212 2.675-.888.751-2.127 1.127-3.716 1.127-1.468 0-2.644-.267-3.532-.802l.506-1.72c.958.537 2.01.804 3.156.804.824 0 1.465-.176 1.922-.525.458-.35.69-.819.69-1.403 0-.524-.192-.962-.568-1.32-.378-.355-1.003-.687-1.882-.992-2.388-.84-3.583-2.07-3.583-3.688 0-1.057.422-1.922 1.265-2.598.842-.676 1.96-1.013 3.35-1.013 1.24 0 2.275.204 3.096.611l-.548 1.682c-.773-.395-1.646-.592-2.621-.592-.771 0-1.376.178-1.808.535-.364.318-.549.706-.549 1.166 0 .509.21.93.629 1.261.362.305 1.025.637 1.982.993 1.174.447 2.037.968 2.59 1.566.556.598.833 1.343.833 2.233zm7.244-4.125H83.49v4.508c0 1.146.425 1.718 1.275 1.718.39 0 .715-.03.97-.095l.061 1.566c-.43.152-.997.229-1.7.229-.862 0-1.537-.25-2.023-.747-.485-.497-.73-1.33-.73-2.503v-4.68H79.91v-1.548h1.435v-1.7l2.146-.612v2.312H85.9v1.552zm10.846 3.018c0 1.427-.433 2.599-1.296 3.515-.902.944-2.104 1.414-3.601 1.414-1.446 0-2.594-.452-3.451-1.355-.857-.905-1.286-2.044-1.286-3.42 0-1.438.443-2.617 1.325-3.533.885-.917 2.076-1.376 3.574-1.376 1.443 0 2.602.453 3.479 1.357.838.876 1.256 2.008 1.256 3.398zm-2.265.047c0-.85-.195-1.58-.586-2.19-.458-.738-1.114-1.106-1.963-1.106-.876 0-1.547.368-2.004 1.106-.392.61-.587 1.352-.587 2.229 0 .851.195 1.583.587 2.192.473.737 1.131 1.105 1.986 1.105.835 0 1.49-.376 1.963-1.124.402-.625.604-1.36.604-2.212zm9.371-2.799a4.011 4.011 0 0 0-.688-.057c-.77 0-1.364.273-1.782.822-.363.484-.545 1.096-.545 1.834v4.872h-2.185v-6.361c0-1.07-.022-2.045-.064-2.923h1.904l.08 1.776h.06a3.196 3.196 0 0 1 1.092-1.472 2.75 2.75 0 0 1 1.58-.497c.202 0 .384.014.546.038l.002 1.968zm9.773 2.389c0 .37-.025.681-.08.936h-6.556c.025.917.343 1.62.952 2.103.553.432 1.267.648 2.144.648.97 0 1.856-.145 2.653-.438l.342 1.431c-.93.383-2.03.574-3.298.574-1.525 0-2.722-.424-3.593-1.27-.869-.846-1.305-1.984-1.305-3.41 0-1.398.406-2.564 1.216-3.494.848-.993 1.995-1.49 3.438-1.49 1.418 0 2.491.497 3.22 1.49.577.786.867 1.762.867 2.92zm-2.084-.535c.016-.612-.127-1.14-.424-1.586-.378-.575-.96-.861-1.741-.861-.714 0-1.296.28-1.738.84-.365.447-.581.983-.648 1.605l4.551.002zM38.43 8.056h-1.16l-.635-2.082h-2.208l-.606 2.082h-1.13L34.88.966h1.35l2.2 7.09zM36.444 5.1l-.575-1.852c-.06-.19-.172-.63-.343-1.335h-.02c-.071.304-.172.747-.324 1.335L34.618 5.1h1.826zm7.458-2.156-1.856 5.112h-1.059l-1.795-5.112h1.17l.837 2.703c.142.452.262.884.353 1.294h.03c.08-.368.201-.8.352-1.294l.827-2.703h1.141zm3.95 5.112-.08-.589h-.03c-.333.474-.817.705-1.432.705-.877 0-1.503-.642-1.503-1.505 0-1.262 1.048-1.914 2.864-1.914v-.094c0-.674-.343-1.01-1.019-1.01a2.22 2.22 0 0 0-1.28.379l-.221-.747c.454-.295 1.018-.443 1.684-.443 1.28 0 1.927.705 1.927 2.115v1.883c0 .516.02.916.07 1.221h-.98zm-.151-2.546c-1.21 0-1.815.305-1.815 1.03 0 .537.312.8.746.8.555 0 1.069-.442 1.069-1.041v-.79zM51.187 2.1c-.362 0-.645-.295-.645-.684 0-.389.292-.673.666-.673.373 0 .675.284.665.673 0 .411-.282.684-.686.684zm.565 5.955h-1.089V2.944h1.09v5.112zm3.024 0h-1.089V.598h1.09v7.458zm4.628 0-.081-.589h-.03c-.332.474-.817.705-1.432.705-.877 0-1.502-.642-1.502-1.505 0-1.262 1.048-1.914 2.863-1.914v-.094c0-.674-.343-1.01-1.018-1.01a2.22 2.22 0 0 0-1.28.379L56.7 3.28c.455-.295 1.019-.443 1.685-.443 1.28 0 1.926.705 1.926 2.115v1.883c0 .516.022.916.07 1.221h-.978zm-.152-2.546c-1.21 0-1.815.305-1.815 1.03 0 .537.313.8.746.8.555 0 1.07-.442 1.07-1.041v-.79zm5.472 2.662c-.695 0-1.208-.306-1.54-.905h-.023l-.062.79h-.928c.03-.41.04-.875.04-1.379V.598h1.09v3.094h.021c.324-.568.846-.853 1.563-.853 1.18 0 2.008 1.053 2.008 2.588 0 1.587-.919 2.745-2.169 2.745zm-.221-4.44c-.627 0-1.2.568-1.2 1.357v.894c0 .705.515 1.284 1.181 1.284.816 0 1.301-.694 1.301-1.799 0-1.03-.506-1.736-1.282-1.736zm5.088 4.324h-1.087V.598h1.087v7.458zm5.928-2.283H72.25c.022.968.635 1.514 1.543 1.514a3.54 3.54 0 0 0 1.321-.241l.17.789c-.464.21-1.009.315-1.643.315-1.534 0-2.441-1.01-2.441-2.576 0-1.568.929-2.746 2.318-2.746 1.25 0 2.038.968 2.038 2.43.004.2-.005.378-.037.515zm-.998-.81c0-.789-.384-1.346-1.08-1.346-.626 0-1.118.568-1.19 1.346h2.27zm7.599 3.21c-1.432 0-2.36-1.116-2.36-2.63 0-1.58.947-2.705 2.442-2.705 1.41 0 2.36 1.063 2.36 2.62 0 1.599-.98 2.714-2.442 2.714zm.041-4.504c-.787 0-1.29.767-1.29 1.84 0 1.053.514 1.82 1.28 1.82s1.279-.82 1.279-1.841c0-1.04-.503-1.82-1.269-1.82zm7.166 4.387V5.12c0-.904-.332-1.357-.987-1.357-.646 0-1.09.579-1.09 1.252v3.041h-1.088V4.405c0-.452-.012-.937-.04-1.463h.957l.051.79h.03c.291-.547.888-.895 1.553-.895 1.028 0 1.703.82 1.703 2.157v3.062h-1.089zm8.214-4.26h-1.198v2.482c0 .632.21.948.633.948.192 0 .354-.022.485-.053l.03.863c-.213.084-.496.126-.846.126-.858 0-1.37-.494-1.37-1.788V3.796h-.716v-.852h.715v-.937l1.069-.337v1.272h1.198v.854zm5.767 4.26h-1.09V5.142c0-.915-.333-1.378-.989-1.378-.564 0-1.088.4-1.088 1.21v3.082h-1.09V.598h1.09v3.07h.021c.343-.556.838-.83 1.473-.83 1.038 0 1.673.84 1.673 2.177v3.041zm5.564-2.283h-3.268c.02.968.633 1.514 1.542 1.514.486 0 .928-.084 1.321-.241l.17.789c-.464.21-1.009.315-1.643.315-1.535 0-2.441-1.01-2.441-2.576 0-1.568.929-2.746 2.318-2.746 1.249 0 2.037.968 2.037 2.43.005.2-.006.378-.036.515zm-.999-.81c0-.789-.382-1.346-1.079-1.346-.626 0-1.119.568-1.19 1.346h2.269z" fill="#000"/>
</svg>
