<svg width="32" height="32" viewBox="0 0 32 32" fill="none" xmlns="http://www.w3.org/2000/svg">
<path d="M18.9255 18.8695C18.9255 19.0542 18.9255 19.2228 18.9255 19.3994C18.3755 19.3994 17.839 19.3994 17.2917 19.3994C17.2917 16.7848 17.2917 14.1782 17.2917 11.5582C17.8551 11.5582 18.4157 11.5582 18.9952 11.5582C18.9952 12.5457 18.9952 13.5359 18.9952 14.5181C19.1884 14.3816 19.36 14.2317 19.5559 14.1247C20.0549 13.8544 20.5887 13.8544 21.1172 14.0096C21.9274 14.2478 22.4585 14.7964 22.7402 15.5725C23.1131 16.6082 23.0299 17.6064 22.3968 18.5296C21.8361 19.3459 20.7792 19.7339 19.8617 19.477C19.5773 19.3967 19.3305 19.2468 19.1159 19.0435C19.0596 18.9873 19.0006 18.9364 18.9255 18.8695ZM18.9174 16.7098C18.9174 17.3521 19.4137 17.8633 20.0388 17.8659C20.688 17.8686 21.2057 17.3735 21.2084 16.7446C21.2138 16.097 20.7041 15.5805 20.0629 15.5805C19.4271 15.5805 18.9174 16.0836 18.9174 16.7098Z" fill="#7CA3C4"/>
<path d="M6.15062 19.3887C5.57653 19.3887 5.01317 19.3887 4.44444 19.3887C4.44444 16.7794 4.44444 14.1728 4.44444 11.5556C5.0078 11.5556 5.56848 11.5556 6.14257 11.5556C6.14257 12.5564 6.14257 13.5627 6.14257 14.5529C6.34109 14.403 6.52351 14.229 6.73812 14.114C7.67705 13.6082 9.38591 13.9347 9.5576 15.6206C9.57369 15.7812 9.57906 15.9418 9.57906 16.1024C9.58174 17.1407 9.57906 18.1817 9.57906 19.2201C9.57906 19.2736 9.57906 19.3245 9.57906 19.3887C9.00765 19.3887 8.44698 19.3887 7.86752 19.3887C7.86752 19.3405 7.86752 19.295 7.86752 19.2468C7.86752 18.3503 7.8702 17.4538 7.86484 16.5573C7.86484 16.4289 7.85679 16.2977 7.82996 16.1719C7.73875 15.7518 7.44366 15.5136 7.02248 15.5136C6.59326 15.5136 6.2767 15.7652 6.18281 16.1933C6.16135 16.2924 6.15062 16.3967 6.15062 16.4984C6.14793 17.4137 6.14793 18.3262 6.14793 19.2415C6.15062 19.287 6.15062 19.3325 6.15062 19.3887Z" fill="#7CA3C4"/>
<path d="M14.4696 19.394C14.4696 19.2147 14.4696 19.0408 14.4696 18.8695C14.4561 18.8561 14.44 18.8454 14.4266 18.832C14.4132 18.8615 14.4079 18.899 14.3864 18.923C13.9974 19.3512 13.5092 19.56 12.9351 19.5493C11.9237 19.5252 11.1887 19.0354 10.7675 18.1416C10.2363 17.0149 10.3034 15.8963 11.0384 14.8633C11.6474 14.0069 12.8439 13.6751 13.7747 14.0899C13.9625 14.1728 14.1235 14.3174 14.2925 14.4405C14.3515 14.4833 14.4025 14.5395 14.4696 14.6064C14.4696 14.4244 14.4696 14.2531 14.4696 14.0738C15.0222 14.0738 15.5614 14.0738 16.106 14.0738C16.106 15.8481 16.106 17.6171 16.106 19.3967C15.5614 19.394 15.0195 19.394 14.4696 19.394ZM13.3348 15.5805C12.707 15.5671 12.1839 16.0676 12.1705 16.6965C12.1571 17.3361 12.6534 17.8552 13.2892 17.8686C13.925 17.882 14.4535 17.3896 14.4669 16.7687C14.483 16.1131 13.9867 15.5939 13.3348 15.5805Z" fill="#7CA3C4"/>
<path d="M25.5677 19.3967C24.9936 19.3967 24.433 19.3967 23.8642 19.3967C23.8642 17.6224 23.8642 15.8508 23.8642 14.0711C24.4061 14.0711 24.9427 14.0711 25.4953 14.0711C25.4953 14.2585 25.4953 14.4431 25.4953 14.6679C26.0291 13.9052 26.7454 13.8169 27.5556 13.9989C27.5073 14.5636 27.459 15.1202 27.4107 15.6635C27.1129 15.626 26.8312 15.5859 26.5496 15.5537C25.9782 15.4868 25.5248 15.9311 25.5623 16.5065C25.5811 16.7875 25.5704 17.0685 25.5704 17.3494C25.5704 17.9837 25.5704 18.6153 25.5704 19.2495C25.5677 19.2923 25.5677 19.3405 25.5677 19.3967Z" fill="#7CA3C4"/>
</svg>
