<svg width="125" height="31" viewBox="0 0 125 31" fill="none" xmlns="http://www.w3.org/2000/svg">
    <path d="M.938 1.598c-.317.324-.422.864-.422 1.511v23.864c0 .648.21 1.188.528 1.512l.105.108 13.092-13.39v-.216L.938 1.597z" fill="url(#1ci0qp82na)"/>
    <path d="m18.808 20.159-4.566-4.476v-.328l4.566-4.476.111.11 5.457 3.056c1.56.873 1.56 2.293 0 3.166l-5.568 2.948z" fill="url(#32ewmq26eb)"/>
    <path d="m19.095 19.77-4.467-4.674L1.332 29.005c.532.556 1.276.556 2.234.111l15.529-9.347z" fill="url(#qckxwdi0dc)"/>
    <path d="M19.095 10.677 3.565 1.944c-.957-.527-1.701-.421-2.233.105l13.296 13.047 4.467-4.42z" fill="url(#ytru58sszd)"/>
    <path d="M62.747 17.491c-2.589 0-4.638 1.887-4.638 4.508 0 2.516 2.05 4.508 4.638 4.508s4.637-1.887 4.637-4.508c0-2.725-2.049-4.508-4.637-4.508zm0 7.129c-1.402 0-2.589-1.153-2.589-2.726 0-1.572 1.187-2.725 2.589-2.725s2.588 1.048 2.588 2.725c0 1.573-1.186 2.726-2.588 2.726zm-10.03-7.129c-2.588 0-4.637 1.887-4.637 4.508 0 2.516 2.049 4.508 4.637 4.508 2.589 0 4.638-1.887 4.638-4.508 0-2.725-2.05-4.508-4.638-4.508zm0 7.129c-1.402 0-2.588-1.153-2.588-2.726 0-1.572 1.186-2.725 2.588-2.725 1.402 0 2.589 1.048 2.589 2.725 0 1.573-1.187 2.726-2.589 2.726zm-11.97-5.766v1.887h4.637c-.108 1.049-.54 1.887-1.078 2.411-.648.63-1.726 1.363-3.56 1.363-2.911 0-5.068-2.201-5.068-5.032 0-2.83 2.265-5.032 5.069-5.032 1.51 0 2.696.63 3.559 1.363l1.401-1.363c-1.186-1.048-2.696-1.886-4.852-1.886-3.883 0-7.226 3.144-7.226 6.918s3.343 6.919 7.226 6.919c2.156 0 3.666-.63 4.96-1.992 1.294-1.258 1.726-3.04 1.726-4.403 0-.419 0-.838-.108-1.153h-6.686zm48.96 1.468c-.43-1.048-1.509-2.83-3.882-2.83-2.372 0-4.313 1.782-4.313 4.507 0 2.516 1.94 4.508 4.53 4.508 2.048 0 3.342-1.258 3.774-1.992l-1.51-1.048c-.54.734-1.186 1.258-2.265 1.258-1.078 0-1.725-.42-2.265-1.363l6.148-2.516-.216-.524zm-6.254 1.468c0-1.678 1.402-2.621 2.372-2.621.755 0 1.51.419 1.726.943l-4.098 1.678zm-5.069 4.297h2.05V12.984h-2.05v13.103zm-3.235-7.652c-.54-.524-1.402-1.048-2.48-1.048-2.265 0-4.422 1.991-4.422 4.507 0 2.516 2.049 4.403 4.421 4.403 1.079 0 1.942-.524 2.373-1.048h.108v.629c0 1.677-.97 2.62-2.48 2.62-1.187 0-2.05-.838-2.265-1.572l-1.726.734c.54 1.153 1.834 2.62 4.098 2.62 2.373 0 4.314-1.362 4.314-4.612v-7.967h-1.941v.734zm-2.373 6.185c-1.402 0-2.588-1.153-2.588-2.726 0-1.572 1.186-2.725 2.588-2.725 1.402 0 2.48 1.153 2.48 2.725 0 1.573-1.078 2.726-2.48 2.726zm26.315-11.636h-4.854v13.103h2.05V21.16h2.803c2.265 0 4.422-1.572 4.422-4.088s-2.157-4.088-4.421-4.088zm.108 6.29h-2.913v-4.508h2.912c1.51 0 2.373 1.258 2.373 2.201-.108 1.153-.971 2.307-2.373 2.307zm12.401-1.887c-1.509 0-3.02.629-3.559 1.991l1.834.734c.431-.734 1.078-.943 1.833-.943 1.079 0 2.048.629 2.156 1.677v.105c-.322-.21-1.185-.524-2.048-.524-1.941 0-3.883 1.048-3.883 2.935 0 1.782 1.618 2.935 3.343 2.935 1.403 0 2.05-.629 2.588-1.258h.108v1.048h1.942v-5.031c-.216-2.307-2.05-3.67-4.314-3.67zm-.216 7.233c-.646 0-1.617-.315-1.617-1.153 0-1.049 1.186-1.363 2.157-1.363.863 0 1.294.21 1.832.42-.214 1.257-1.293 2.096-2.372 2.096zm11.324-6.919-2.265 5.66h-.108l-2.372-5.66h-2.157l3.559 7.967-2.049 4.403h2.049l5.5-12.37h-2.157zm-18.117 8.386h2.048V12.984h-2.048v13.103zM41.14 8.232h-1.194l-.652-2.087h-2.269l-.622 2.087h-1.16l2.248-7.108h1.388l2.26 7.108zM39.097 5.27l-.59-1.856c-.063-.19-.177-.633-.353-1.34h-.022c-.072.306-.176.75-.332 1.34l-.58 1.856h1.877zm7.664-2.162-1.907 5.125h-1.088l-1.845-5.125h1.202l.86 2.71c.146.454.27.886.362 1.297h.032c.083-.368.207-.8.361-1.296l.85-2.71h1.173zm4.06 5.125-.084-.59h-.031c-.342.475-.84.706-1.471.706-.902 0-1.544-.643-1.544-1.508 0-1.265 1.077-1.919 2.942-1.919v-.095c0-.674-.352-1.012-1.046-1.012a2.32 2.32 0 0 0-1.316.38l-.227-.749c.466-.295 1.046-.443 1.73-.443 1.316 0 1.98.706 1.98 2.12V7.01c0 .517.021.918.073 1.223H50.82zm-.157-2.552c-1.243 0-1.865.306-1.865 1.033 0 .538.321.8.767.8.57 0 1.098-.441 1.098-1.042V5.68zm3.582-3.417c-.372 0-.663-.296-.663-.686 0-.39.3-.674.685-.674.383 0 .694.284.683.674 0 .412-.29.686-.705.686zm.581 5.97H53.71V3.106h1.12v5.125zm3.107 0h-1.119V.755h1.12v7.476zm4.756 0-.084-.591h-.03c-.342.475-.84.706-1.472.706-.9 0-1.544-.643-1.544-1.508 0-1.265 1.078-1.919 2.943-1.919v-.095c0-.674-.352-1.012-1.046-1.012-.498 0-.934.127-1.316.38l-.228-.75c.466-.295 1.046-.443 1.73-.443 1.316 0 1.98.706 1.98 2.12v1.887c0 .518.023.919.072 1.224H62.69zm-.156-2.553c-1.244 0-1.865.306-1.865 1.033 0 .538.321.8.766.8.57 0 1.099-.441 1.099-1.042V5.68zm5.623 2.668c-.715 0-1.242-.306-1.584-.907h-.022l-.064.791h-.954c.031-.41.042-.876.042-1.381V.756h1.12v3.101h.021c.332-.57.87-.854 1.606-.854 1.213 0 2.063 1.055 2.063 2.594 0 1.59-.944 2.751-2.228 2.751zm-.228-4.45c-.644 0-1.233.569-1.233 1.36v.896c0 .707.53 1.287 1.214 1.287.838 0 1.337-.695 1.337-1.803-.001-1.033-.52-1.74-1.318-1.74zm5.229 4.334H72.04V.756h1.118v7.476zm6.091-2.288h-3.359c.022.97.652 1.518 1.586 1.518.497 0 .953-.085 1.356-.243l.175.791c-.477.211-1.036.317-1.688.317-1.576 0-2.508-1.013-2.508-2.583 0-1.572.954-2.753 2.382-2.753 1.284 0 2.093.97 2.093 2.436.005.2-.005.38-.037.517zm-1.026-.812c0-.791-.394-1.35-1.11-1.35-.642 0-1.148.57-1.223 1.35h2.333zm7.808 3.216c-1.471 0-2.425-1.118-2.425-2.636 0-1.582.974-2.71 2.51-2.71 1.448 0 2.424 1.065 2.424 2.627 0 1.601-1.006 2.72-2.509 2.72zm.043-4.514c-.809 0-1.326.77-1.326 1.846 0 1.055.528 1.824 1.315 1.824.787 0 1.314-.823 1.314-1.846.001-1.043-.516-1.824-1.303-1.824zm8.482 4.398H93.44V5.29c0-.906-.342-1.36-1.015-1.36-.663 0-1.12.58-1.12 1.255v3.048h-1.118v-3.66c0-.453-.012-.939-.042-1.466h.984l.052.791h.032c.299-.547.912-.896 1.595-.896 1.055 0 1.75.822 1.75 2.161v3.07zm7.321-4.27h-1.231V6.45c0 .634.216.95.651.95.198 0 .365-.022.498-.053l.031.865c-.218.084-.51.127-.869.127-.882 0-1.409-.496-1.409-1.793V3.962h-.734v-.855h.734v-.939l1.098-.337v1.275h1.231v.856zm5.926 4.27h-1.12v-2.92c0-.918-.342-1.382-1.015-1.382-.581 0-1.118.4-1.118 1.213v3.09h-1.12V.755h1.12v3.078h.02c.354-.558.861-.833 1.514-.833 1.067 0 1.719.843 1.719 2.183v3.048zm5.717-2.288h-3.358c.022.97.651 1.518 1.585 1.518.498 0 .953-.085 1.357-.243l.175.791c-.476.211-1.037.317-1.689.317-1.576 0-2.508-1.013-2.508-2.583 0-1.572.955-2.753 2.382-2.753 1.285 0 2.094.97 2.094 2.436.004.2-.007.38-.038.517zm-1.026-.812c0-.791-.393-1.35-1.108-1.35-.644 0-1.15.57-1.224 1.35h2.332z" fill="#000"/>
    <defs>
        <linearGradient id="1ci0qp82na" x1="113.386" y1="2.185" x2="108.565" y2="41.231" gradientUnits="userSpaceOnUse">
            <stop stop-color="#00A0FF"/>
            <stop offset=".007" stop-color="#00A1FF"/>
            <stop offset=".26" stop-color="#00BEFF"/>
            <stop offset=".512" stop-color="#00D2FF"/>
            <stop offset=".76" stop-color="#00DFFF"/>
            <stop offset="1" stop-color="#00E3FF"/>
        </linearGradient>
        <linearGradient id="32ewmq26eb" x1="134.47" y1="15.348" x2="-161.97" y2="15.348" gradientUnits="userSpaceOnUse">
            <stop stop-color="#FFE000"/>
            <stop offset=".409" stop-color="#FFBD00"/>
            <stop offset=".775" stop-color="orange"/>
            <stop offset="1" stop-color="#FF9C00"/>
        </linearGradient>
        <linearGradient id="qckxwdi0dc" x1="107.939" y1="6.016" x2="78.635" y2="101.267" gradientUnits="userSpaceOnUse">
            <stop stop-color="#FF3A44"/>
            <stop offset="1" stop-color="#C31162"/>
        </linearGradient>
        <linearGradient id="ytru58sszd" x1="-22.589" y1="-15.343" x2="-9.391" y2="27.356" gradientUnits="userSpaceOnUse">
            <stop stop-color="#32A071"/>
            <stop offset=".069" stop-color="#2DA771"/>
            <stop offset=".476" stop-color="#15CF74"/>
            <stop offset=".801" stop-color="#06E775"/>
            <stop offset="1" stop-color="#00F076"/>
        </linearGradient>
    </defs>
</svg>
