<svg width="20" height="20" viewBox="0 0 20 20" fill="none" xmlns="http://www.w3.org/2000/svg">
<g id="Pin">
<path id="Vector" d="M10 2C6.68629 2 4 4.57922 4 7.76087C4 11.0248 7.77486 15.8426 9.33657 17.6951C9.67943 18.1016 10.3206 18.1016 10.6634 17.6951C12.2251 15.8426 16 11.0248 16 7.76087C16 4.57922 13.3137 2 10 2ZM10 9.81833C8.81629 9.81833 7.85714 8.89741 7.85714 7.76087C7.85714 6.62433 8.81629 5.70342 10 5.70342C11.1837 5.70342 12.1429 6.62433 12.1429 7.76087C12.1429 8.89741 11.1837 9.81833 10 9.81833Z" fill="#0069AB"/>
</g>
</svg>
