<svg width="24.000000" height="24.000000" viewBox="0 0 24 24" fill="none" xmlns="http://www.w3.org/2000/svg" xmlns:xlink="http://www.w3.org/1999/xlink">
	<desc>
			Created with Pixso.
	</desc>
	<defs>
		<clipPath id="clip15272_31355">
			<rect id="Sort" width="24.000000" height="24.000000" fill="white" fill-opacity="0"/>
		</clipPath>
	</defs>
	<rect id="Sort" width="24.000000" height="24.000000" fill="#FFFFFF" fill-opacity="0"/>
	<g clip-path="url(#clip15272_31355)">
		<path id="Vector" d="M6 20L6 16C6 15.4502 6.44922 15 7 15C7.55078 15 8 15.4502 8 16L8 20C8 20.5498 7.55078 21 7 21C6.44922 21 6 20.5498 6 20ZM17 21C16.4492 21 16 20.5498 16 20L16 4C16 3.4502 16.4492 3 17 3C17.5508 3 18 3.4502 18 4L18 20C18 20.5498 17.5508 21 17 21ZM11 20L11 10C11 9.4502 11.4492 9 12 9C12.5508 9 13 9.4502 13 10L13 20C13 20.5498 12.5508 21 12 21C11.4492 21 11 20.5498 11 20Z" fill="#0069AB" fill-opacity="1.000000" fill-rule="nonzero"/>
	</g>
</svg>
