<svg width="24.000000" height="24.000000" viewBox="0 0 24 24" fill="none" xmlns="http://www.w3.org/2000/svg" xmlns:xlink="http://www.w3.org/1999/xlink">
	<desc>
			Created with Pixso.
	</desc>
	<defs>
		<clipPath id="clip15272_31351">
			<rect id="Heart-filled" width="24.000000" height="24.000000" fill="white" fill-opacity="0"/>
		</clipPath>
	</defs>
	<g clip-path="url(#clip15272_31351)">
		<path id="Vector" d="M16.2559 3.00391C13.5156 3.11621 12 5.08887 12 5.08887C12 5.08887 10.4844 3.11621 7.74414 3.00391C5.90625 2.92969 4.2207 3.84473 3.11133 5.31152C-0.751953 10.415 6.56055 16.3867 8.28125 17.9893C9.31055 18.9482 10.5801 20.0869 11.3379 20.7627C11.7168 21.1006 12.2812 21.1006 12.6602 20.7627C13.418 20.0869 14.6895 18.9482 15.7188 17.9893C17.4375 16.3867 24.75 10.415 20.8887 5.31152C19.7793 3.84473 18.0938 2.92969 16.2559 3.00391Z" fill="#0069AB" fill-opacity="1.000000" fill-rule="nonzero"/>
	</g>
</svg>
