<svg width="20" height="20" viewBox="0 0 20 20" fill="none" xmlns="http://www.w3.org/2000/svg">
    <g clip-path="url(#p9ntdc44ra)" fill-rule="evenodd" clip-rule="evenodd" fill="#000">
        <path d="M16.781 3.219a.747.747 0 0 1 0 1.056l-3.733 3.733a.747.747 0 0 1-1.056-1.056l3.733-3.733a.747.747 0 0 1 1.056 0z"/>
        <path d="M5.053 4.307a.933.933 0 0 0-.933.918A11.387 11.387 0 0 0 14.775 15.88a.934.934 0 0 0 .918-.933v-2.608l-2.938-1.175-.875 1.457a.56.56 0 0 1-.728.215 8.773 8.773 0 0 1-3.988-3.988.56.56 0 0 1 .215-.728l1.457-.875-1.175-2.938H5.053zm-1.452-.519a2.053 2.053 0 0 1 1.452-.601H8.04a.56.56 0 0 1 .52.352l1.493 3.733a.56.56 0 0 1-.232.688l-1.41.846a7.654 7.654 0 0 0 2.783 2.782l.846-1.41a.56.56 0 0 1 .688-.231l3.733 1.493a.56.56 0 0 1 .352.52v2.987a2.053 2.053 0 0 1-2.087 2.052A12.507 12.507 0 0 1 3 5.24c0-.545.216-1.067.601-1.452z"/>
        <path d="M12.52 3.747c.412 0 .747.334.747.746v2.24h2.24a.747.747 0 0 1 0 1.494H12.52a.747.747 0 0 1-.747-.747V4.493c0-.412.335-.746.747-.746z"/>
    </g>
    <defs>
        <clipPath id="p9ntdc44ra">
            <path fill="#fff" d="M0 0h20v20H0z"/>
        </clipPath>
    </defs>
</svg>
