<svg width="24.000000" height="24.000000" viewBox="0 0 24 24" fill="none" xmlns="http://www.w3.org/2000/svg" xmlns:xlink="http://www.w3.org/1999/xlink">
	<desc>
			Created with Pixso.
	</desc>
	<defs>
		<clipPath id="clip15272_31345">
			<rect id="Search" width="24.000000" height="24.000000" fill="white" fill-opacity="0"/>
		</clipPath>
	</defs>
	<g clip-path="url(#clip15272_31345)">
		<path id="Union" d="M14.9062 16.3203C13.5508 17.373 11.8496 18 10 18C5.58203 18 2 14.418 2 10C2 5.58203 5.58203 2 10 2C14.418 2 18 5.58203 18 10C18 11.8486 17.373 13.5508 16.3203 14.9053L20.707 19.293C21.0977 19.6836 21.0977 20.3164 20.707 20.707C20.3164 21.0977 19.6836 21.0977 19.293 20.707L14.9062 16.3203ZM16 10C16 13.3135 13.3145 16 10 16C6.68555 16 4 13.3135 4 10C4 6.68652 6.68555 4 10 4C13.3145 4 16 6.68652 16 10Z" fill="#7CA4C5" fill-opacity="1.000000" fill-rule="evenodd"/>
	</g>
</svg>
