<svg width="20" height="20" viewBox="0 0 20 20" fill="none" xmlns="http://www.w3.org/2000/svg">
<path d="M7.4974 4.16675H5.83073C5.3887 4.16675 4.96478 4.34234 4.65222 4.6549C4.33966 4.96746 4.16406 5.39139 4.16406 5.83341V15.8334C4.16406 16.2754 4.33966 16.6994 4.65222 17.0119C4.96478 17.3245 5.3887 17.5001 5.83073 17.5001H14.1641C14.6061 17.5001 15.03 17.3245 15.3426 17.0119C15.6551 16.6994 15.8307 16.2754 15.8307 15.8334V5.83341C15.8307 5.39139 15.6551 4.96746 15.3426 4.6549C15.03 4.34234 14.6061 4.16675 14.1641 4.16675H12.4974" stroke="#000" stroke-width="1.5" stroke-linecap="round" stroke-linejoin="round"/>
<path d="M7.5 4.16667C7.5 3.72464 7.6756 3.30072 7.98816 2.98816C8.30072 2.67559 8.72464 2.5 9.16667 2.5H10.8333C11.2754 2.5 11.6993 2.67559 12.0118 2.98816C12.3244 3.30072 12.5 3.72464 12.5 4.16667C12.5 4.60869 12.3244 5.03262 12.0118 5.34518C11.6993 5.65774 11.2754 5.83333 10.8333 5.83333H9.16667C8.72464 5.83333 8.30072 5.65774 7.98816 5.34518C7.6756 5.03262 7.5 4.60869 7.5 4.16667Z" stroke="#000" stroke-width="1.5" stroke-linecap="round" stroke-linejoin="round"/>
<path d="M7.5 11.6667L9.16667 13.3333L12.5 10" stroke="#000" stroke-width="1.5" stroke-linecap="round" stroke-linejoin="round"/>
</svg>
