<svg width="24.000000" height="24.000000" viewBox="0 0 24 24" fill="none" xmlns="http://www.w3.org/2000/svg" xmlns:xlink="http://www.w3.org/1999/xlink">
	<desc>
			Created with Pixso.
	</desc>
	<defs>
		<clipPath id="clip15272_31372">
			<rect id="Frame 4" width="24.000000" height="24.000000" fill="white" fill-opacity="0"/>
		</clipPath>
	</defs>
	<g clip-path="url(#clip15272_31372)">
		<path id="Star 1" d="M14.4766 2.47852C13.2637 0.776367 10.7363 0.776367 9.52344 2.47852C8.91992 3.32812 7.92188 3.80859 6.88086 3.75098C4.79492 3.63672 3.21875 5.61426 3.79492 7.62305C4.08203 8.625 3.83398 9.7041 3.14062 10.4824C1.75195 12.042 2.31445 14.5078 4.24414 15.3105C5.20508 15.71 5.89648 16.5762 6.07227 17.6025C6.42578 19.6621 8.70312 20.7598 10.5332 19.752C11.4473 19.249 12.5527 19.249 13.4668 19.752C15.2969 20.7598 17.5742 19.6621 17.9277 17.6025C18.1035 16.5762 18.7949 15.71 19.7559 15.3105C21.6855 14.5078 22.248 12.042 20.8594 10.4824C20.166 9.7041 19.918 8.625 20.2051 7.62305C20.7812 5.61426 19.2051 3.63672 17.1191 3.75098C16.0781 3.80859 15.0801 3.32812 14.4766 2.47852ZM13.6836 3.95215C12.8594 2.79492 11.1406 2.79492 10.3164 3.95215C9.68164 4.84473 8.63281 5.34961 7.53906 5.28906C6.12109 5.21191 5.04883 6.55664 5.43945 7.92188C5.74219 8.97559 5.48242 10.1094 4.75391 10.9268C3.80859 11.9873 4.19141 13.6641 5.50391 14.21C6.51562 14.6299 7.24023 15.54 7.42578 16.6191C7.66602 18.0195 9.21484 18.7656 10.459 18.0801C11.418 17.5518 12.582 17.5518 13.541 18.0801C14.7852 18.7656 16.334 18.0195 16.5742 16.6191C16.7598 15.54 17.4844 14.6299 18.4961 14.21C19.8086 13.6641 20.1914 11.9873 19.2461 10.9268C18.5176 10.1094 18.2578 8.97559 18.5605 7.92188C18.9512 6.55664 17.8789 5.21191 16.4609 5.28906C15.3672 5.34961 14.3184 4.84473 13.6836 3.95215Z" fill="#000" fill-opacity="1.000000" fill-rule="evenodd"/>
		<path id="Vector 5" d="M12 8L12 11" stroke="#000" stroke-opacity="1.000000" stroke-width="1.500000" stroke-linecap="square"/>
		<circle id="Ellipse 14" cx="12.000000" cy="14.000000" r="1.000000" fill="#000" fill-opacity="1.000000"/>
		<circle id="Ellipse 14" cx="12.000000" cy="14.000000" r="0.500000" stroke="#000" stroke-opacity="1.000000" stroke-width="1.000000"/>
	</g>
</svg>
