<svg width="148.000000" height="44.000000" viewBox="0 0 148 44" fill="none" xmlns="http://www.w3.org/2000/svg" xmlns:xlink="http://www.w3.org/1999/xlink">
	<desc>
			Created with Pixso.
	</desc>
	<defs>
		<clipPath id="clip15272_31326">
			<rect id="xcomshop-logo-main-small 1" width="148.000000" height="28.000000" transform="translate(0.000000 8.000000)" fill="white" fill-opacity="0"/>
		</clipPath>
		<clipPath id="clip15272_31325">
			<rect id="Frame 274" width="148.000000" height="44.000000" fill="white" fill-opacity="0"/>
		</clipPath>
	</defs>
	<g clip-path="url(#clip15272_31325)">
		<rect id="xcomshop-logo-main-small 1" width="148.000000" height="28.000000" transform="translate(0.000000 8.000000)" fill="#FFFFFF" fill-opacity="0"/>
		<g clip-path="url(#clip15272_31326)">
			<path id="Vector" d="M101.514 22.377C101.516 22.8506 101.379 23.3145 101.121 23.708C100.861 24.1025 100.494 24.4102 100.064 24.5918C99.6328 24.7734 99.1582 24.8213 98.7012 24.7295C98.2441 24.6377 97.8242 24.4092 97.4941 24.0742C97.1641 23.7402 96.9395 23.3135 96.8496 22.8486C96.7598 22.3838 96.8066 21.9023 96.9844 21.4658C97.1641 21.0283 97.4668 20.6553 97.8555 20.3926C98.2441 20.1299 98.6992 19.9912 99.166 19.9922C99.7891 19.9922 100.387 20.2432 100.826 20.6904C101.268 21.1377 101.514 21.7451 101.514 22.377Z" fill="#0069AB" fill-opacity="1.000000" fill-rule="nonzero"/>
			<path id="Vector" d="M20.9922 29.2949L27.6016 36L41.9668 36L28.1758 22L20.9922 29.2949ZM41.9668 8L27.6016 8L20.9922 14.7051L28.1758 22L41.9668 8Z" fill="#BABCBE" fill-opacity="1.000000" fill-rule="nonzero"/>
			<path id="Vector" d="M20.9688 14.7051L14.3613 8L0 8L13.7852 22L0 36L14.3613 36L20.9688 29.2949L28.1523 22L20.9688 14.7051Z" fill="#0069AB" fill-opacity="1.000000" fill-rule="nonzero"/>
			<path id="Vector" d="M44.3145 16.7773L47.7754 16.7773L49.3242 19.416L49.9492 20.6855L50.6738 19.3525L52.1348 16.7588L55.377 16.7588L52.0039 22.252L55.752 28.0684L52.2734 28.0684L50.3984 25.0625L49.7363 23.793L49.0234 25.1064L47.2637 28.0684L44.0273 28.0684L47.7754 22.252L44.3145 16.7773ZM64.1094 16.9111L63.9336 19.0488C63.666 18.9336 63.3848 18.8525 63.0977 18.8076C62.7773 18.7617 62.4531 18.7402 62.1289 18.7441C61.6621 18.7266 61.1953 18.8125 60.7637 18.9961C60.332 19.1807 59.9453 19.458 59.6309 19.8096C58.9961 20.542 58.6582 21.4922 58.6875 22.4678C58.6406 23.4385 58.9668 24.3896 59.5996 25.1191C59.8984 25.4443 60.2637 25.7012 60.668 25.8711C61.0742 26.042 61.5098 26.123 61.9473 26.1084C62.3379 26.1084 62.7266 26.0703 63.1094 25.9941C63.4785 25.9238 63.8379 25.8154 64.1836 25.6709L64.291 27.8086C63.8516 27.9443 63.4023 28.0488 62.9473 28.1191C62.4473 28.2021 61.9414 28.2441 61.4355 28.2461C60.5898 28.2969 59.7441 28.1465 58.9648 27.8057C58.1855 27.4658 57.4961 26.9453 56.9512 26.2861C56.0645 25.1621 55.5996 23.7549 55.6387 22.3154C55.6074 20.8926 56.1152 19.5117 57.0566 18.458C57.6445 17.8291 58.3613 17.3369 59.1543 17.0176C59.9492 16.6973 60.8008 16.5576 61.6543 16.6064C62.4824 16.6064 63.3066 16.708 64.1094 16.9111ZM64.4961 22.4229C64.459 21.6514 64.5762 20.8799 64.8379 20.1543C65.0996 19.4287 65.502 18.7637 66.0215 18.1982C67.1934 17.1709 68.6895 16.6055 70.2363 16.6055C71.7852 16.6055 73.2812 17.1709 74.4531 18.1982C75.4375 19.3799 75.9785 20.8779 75.9785 22.4258C75.9785 23.9746 75.4375 25.4727 74.4531 26.6543C73.2812 27.6816 71.7852 28.2471 70.2363 28.2471C68.6895 28.2471 67.1934 27.6816 66.0215 26.6543C65.502 26.0879 65.0996 25.4219 64.8379 24.6953C64.5742 23.9688 64.459 23.1963 64.4961 22.4229ZM67.5391 22.4229C67.4766 23.3936 67.7441 24.3555 68.2949 25.1504C68.5215 25.4512 68.8145 25.6943 69.1484 25.8613C69.4844 26.0283 69.8516 26.1152 70.2246 26.1152C70.5977 26.1152 70.9648 26.0283 71.3008 25.8613C71.6348 25.6943 71.9277 25.4512 72.1543 25.1504C72.7148 24.3643 72.9902 23.4043 72.9297 22.4355C72.9824 21.4736 72.7129 20.5215 72.168 19.7334C71.9414 19.4316 71.6484 19.1865 71.3145 19.0176C70.9805 18.8486 70.6113 18.7607 70.2363 18.7607C69.8633 18.7607 69.4941 18.8486 69.1602 19.0176C68.8242 19.1865 68.5332 19.4316 68.3066 19.7334C67.7559 20.5146 67.4844 21.4639 67.5391 22.4229ZM79.9688 28.0684L77.0527 28.0684L77.0527 16.7773L79.8184 16.7773L79.8184 18.6807C80.1113 18.0312 80.5957 17.4902 81.2051 17.1328C81.8418 16.7627 82.5645 16.5742 83.2988 16.5869C83.8262 16.5742 84.3516 16.6709 84.8418 16.873C85.2148 17.0371 85.5449 17.2871 85.8066 17.6045C86.0684 17.9219 86.2539 18.2969 86.3457 18.6992C86.7148 18.0508 87.248 17.5137 87.8887 17.1455C88.5508 16.7676 89.2988 16.5752 90.0566 16.5869C91.5059 16.5869 92.5117 17.1006 93.0859 18.1348C93.4668 18.874 93.6523 19.7002 93.623 20.5332L93.623 28.0498L90.6992 28.0498L90.6992 21.7061C90.7246 21.1406 90.668 20.5742 90.5312 20.0254C90.4395 19.707 90.2422 19.4307 89.9727 19.2441C89.7012 19.0566 89.377 18.9697 89.0508 18.998C88.7441 18.9932 88.4395 19.0596 88.1602 19.1914C87.8809 19.3232 87.6348 19.5166 87.4395 19.7588C86.9922 20.3467 86.7715 21.0791 86.8145 21.8203L86.8145 28.0625L83.8789 28.0625L83.8789 21.7188C83.9102 21.1143 83.8359 20.5088 83.6602 19.9297C83.5605 19.6426 83.3691 19.3975 83.1172 19.2305C82.8652 19.0645 82.5664 18.9873 82.2676 19.0107C81.9688 19.0029 81.6699 19.0605 81.3965 19.1816C81.1211 19.3018 80.875 19.4814 80.6738 19.708C80.1816 20.2998 79.9297 21.0596 79.9688 21.833L79.9688 28.0684Z" fill="#000000" fill-opacity="1.000000" fill-rule="nonzero"/>
			<path id="Vector" d="M112.164 17.0889L111.902 19.2197C111.494 19.0635 111.076 18.9346 110.652 18.833C110.242 18.7354 109.822 18.6836 109.402 18.6807C108.832 18.6279 108.262 18.7812 107.791 19.1123C107.684 19.2031 107.598 19.3164 107.537 19.4443C107.479 19.5723 107.447 19.7129 107.447 19.8545C107.453 20.085 107.529 20.3086 107.664 20.4951C107.797 20.6816 107.982 20.8232 108.197 20.9014C108.328 20.958 108.641 21.0723 109.146 21.25C109.873 21.4443 110.561 21.7617 111.182 22.1885C111.588 22.5137 111.908 22.9326 112.121 23.4092C112.334 23.8867 112.43 24.4082 112.404 24.9316C112.377 25.4541 112.227 25.9629 111.967 26.415C111.705 26.8672 111.344 27.25 110.908 27.5303C110.045 28.0254 109.064 28.2734 108.072 28.2471C107.443 28.2402 106.816 28.1787 106.197 28.0625C105.584 27.9551 104.979 27.7979 104.387 27.5938L104.512 25.2842C105.031 25.5068 105.564 25.6885 106.111 25.8301C106.613 25.9658 107.129 26.0381 107.648 26.0459C108.139 26.085 108.627 25.958 109.039 25.6846C109.18 25.5889 109.293 25.46 109.373 25.3096C109.451 25.1592 109.494 24.9922 109.496 24.8213C109.492 24.6094 109.432 24.4033 109.322 24.2236C109.213 24.0439 109.057 23.8975 108.871 23.7998C108.439 23.5781 107.994 23.3896 107.535 23.2354C106.598 22.9619 105.746 22.4434 105.068 21.7324C104.709 21.209 104.529 20.5801 104.555 19.9434C104.543 19.5273 104.615 19.1143 104.768 18.7275C104.918 18.3418 105.146 17.9912 105.436 17.6973C105.867 17.3086 106.369 17.0117 106.914 16.8242C107.459 16.6377 108.035 16.5635 108.609 16.6064C109.234 16.6045 109.861 16.6445 110.482 16.7275C111.053 16.7988 111.615 16.9199 112.164 17.0889ZM113.557 28.0693L113.557 11.7031L116.473 11.7031L116.473 16.7783L116.367 18.5283C116.863 17.8184 117.547 17.2666 118.342 16.9365C118.857 16.7119 119.414 16.5938 119.979 16.5879C120.502 16.5576 121.027 16.6338 121.521 16.8115C122.018 16.9893 122.475 17.2646 122.863 17.6211C123.227 18.0166 123.504 18.4824 123.684 18.9902C123.861 19.499 123.936 20.0391 123.9 20.5771L123.9 28.0498L120.996 28.0498L120.996 21.5605C121.027 20.9863 120.93 20.4121 120.715 19.8799C120.564 19.5879 120.33 19.3477 120.045 19.1924C119.758 19.0361 119.432 18.9707 119.109 19.0049C118.793 19 118.479 19.0625 118.186 19.1865C117.893 19.3105 117.631 19.4951 117.41 19.7275C117.086 20.0938 116.836 20.5215 116.678 20.9863C116.52 21.4521 116.453 21.9453 116.486 22.4365L116.486 28.0693L113.557 28.0693ZM124.975 22.4238C124.916 21.6416 125.023 20.8564 125.291 20.1221C125.561 19.3867 125.982 18.7197 126.529 18.167C127.076 17.6143 127.734 17.1885 128.461 16.9189C129.184 16.6494 129.959 16.543 130.729 16.6064C131.5 16.5635 132.271 16.6826 132.996 16.957C133.721 17.2314 134.381 17.6533 134.938 18.1992C135.922 19.3809 136.463 20.8789 136.463 22.4268C136.463 23.9746 135.922 25.4727 134.938 26.6543C133.766 27.6826 132.268 28.248 130.719 28.248C129.17 28.248 127.672 27.6826 126.5 26.6543C125.979 26.0889 125.576 25.4229 125.314 24.6953C125.053 23.9688 124.938 23.1963 124.975 22.4238ZM128.023 22.4238C127.963 23.3926 128.227 24.3545 128.771 25.1514C129 25.4512 129.293 25.6943 129.629 25.8613C129.965 26.0293 130.332 26.1162 130.705 26.1162C131.078 26.1162 131.447 26.0293 131.783 25.8613C132.117 25.6943 132.41 25.4512 132.639 25.1514C133.197 24.3633 133.471 23.4043 133.414 22.4365C133.465 21.4746 133.197 20.5225 132.652 19.7344C132.424 19.4316 132.133 19.1865 131.797 19.0176C131.461 18.8486 131.092 18.7607 130.719 18.7607C130.344 18.7607 129.975 18.8486 129.641 19.0176C129.305 19.1865 129.012 19.4316 128.785 19.7344C128.238 20.5176 127.971 21.4648 128.023 22.4238ZM140.021 32.7383L137.105 32.7383L137.105 16.7783L139.66 16.7783L139.66 18.7441C140.02 18.1172 140.527 17.5918 141.141 17.2158C141.795 16.7998 142.555 16.5801 143.326 16.5811C143.973 16.5508 144.615 16.6709 145.209 16.9307C145.803 17.1914 146.328 17.5859 146.75 18.085C147.586 19.0869 147.998 20.5273 147.998 22.3984C147.998 24.4365 147.469 25.9629 146.406 26.9785C145.979 27.3955 145.475 27.7227 144.922 27.9404C144.371 28.1582 143.781 28.2627 143.189 28.2471C142.475 28.2637 141.768 28.084 141.146 27.7266C140.68 27.4248 140.287 27.0215 139.992 26.5469L139.992 28.3994L140.021 32.7383ZM140.021 22.4238C139.973 23.3262 140.223 24.2207 140.734 24.9609C140.93 25.251 141.191 25.4873 141.498 25.6514C141.803 25.8154 142.145 25.9004 142.488 25.8994C142.834 25.9004 143.174 25.8154 143.48 25.6543C143.787 25.4932 144.051 25.2598 144.25 24.9736C144.717 24.2119 144.965 23.333 144.965 22.4365C144.965 21.5391 144.717 20.6602 144.25 19.8984C144.055 19.6113 143.791 19.376 143.484 19.2139C143.178 19.0508 142.838 18.9658 142.492 18.9658C142.146 18.9658 141.807 19.0508 141.5 19.2139C141.193 19.376 140.932 19.6113 140.734 19.8984C140.227 20.6357 139.975 21.5244 140.021 22.4238Z" fill="#0069AB" fill-opacity="1.000000" fill-rule="nonzero"/>
		</g>
	</g>
</svg>
